<svg id="Layer_1" data-name="Layer 1" xmlns="http://www.w3.org/2000/svg" viewBox="0 0 579.45 713.29"><defs><style>.cls-1{fill:#ff9c31;stroke:#3a3a3a;stroke-miterlimit:10;stroke-width:3px;}.cls-2{fill:#48cca6;}.cls-3{fill:#128766;}</style></defs><path class="cls-1" d="M930.39,301.83c0-159.19-129-288.23-288.23-288.23s-288.23,129-288.23,288.23c0,125.88,80.71,232.89,193.19,272.17l40.62,70.34,41.67,72.19a14.73,14.73,0,0,0,25.5,0l41.67-72.19L737.2,574C849.68,534.72,930.39,427.71,930.39,301.83Z" transform="translate(-352.43 -12.1)"/><path d="M582.89,462.35v21.77c0,10.79-6.41,19.61-14.24,19.61h-1.9c-7.83,0-14.24-8.82-14.24-19.61V462.35Z" transform="translate(-352.43 -12.1)"/><path d="M729.09,462.35v21.77c0,10.79-6.41,19.61-14.24,19.61H713c-7.83,0-14.24-8.82-14.24-19.61V462.35Z" transform="translate(-352.43 -12.1)"/><path class="cls-2" d="M506.94,145.82a32.28,32.28,0,0,0,32.28,32.28l203.5,0a32.28,32.28,0,1,0,0-64.55l-203.5,0a32.28,32.28,0,0,0-32.28,32.28" transform="translate(-352.43 -12.1)"/><path class="cls-2" d="M749.26,176.23H532.34l12.57,271.49s-1.9,17.09,13.29,17.09H723.39c15.19,0,13.29-17.09,13.29-17.09Z" transform="translate(-352.43 -12.1)"/><path d="M674.7,241.71H606.9s-15.47-2.07-15.47,20.74,3.8,95.4,3.8,95.4,1.9,18.67,17.09,18.67h57c15.19,0,17.09-18.67,17.09-18.67s3.8-72.58,3.8-95.4S674.7,241.71,674.7,241.71Z" transform="translate(-352.43 -12.1)"/><path d="M666.43,113.56V145.7c0,8.46-5,15.31-11.11,15.31h-29c-6.14,0-11.11-6.85-11.11-15.31V113.56Z" transform="translate(-352.43 -12.1)"/><polygon class="cls-3" points="179.91 165.05 394.7 208.65 396.71 165.17 179.91 165.05"/></svg>