<svg id="Layer_1" data-name="Layer 1" xmlns="http://www.w3.org/2000/svg" viewBox="0 0 515 300.5"><defs><style>.cls-1{fill:#c7ffcf;}.cls-2{fill:#ff9c31;}.cls-3{fill:#e85a13;}.cls-4{fill:#48cca6;}.cls-5{fill:#5459c6;}.cls-6{fill:#ccc;}.cls-7{fill:#128766;}.cls-8{fill:#282d70;}.cls-9{fill:#6dc96d;}</style></defs><path class="cls-1" d="M928.5,234.25h-491a12,12,0,0,0-12,12l23,35h469l23-35A12,12,0,0,0,928.5,234.25Z" transform="translate(-425.5 -234.25)"/><path d="M587.5,513.51v11.14c0,5.55-3.37,10.1-7.5,10.1h-1c-4.13,0-7.5-4.55-7.5-10.1V513.51Z" transform="translate(-425.5 -234.25)"/><path d="M510.5,513v11.46c0,5.68-3.37,10.33-7.5,10.33h-1c-4.13,0-7.5-4.65-7.5-10.33V513Z" transform="translate(-425.5 -234.25)"/><path class="cls-2" d="M594.68,329.26H487.5a17,17,0,0,0,0,34H594.68a17,17,0,0,0,0-34Z" transform="translate(-425.5 -234.25)"/><path class="cls-2" d="M598.12,362.26H483.88l6.62,143s-1,9,7,9h87c8,0,7-9,7-9Z" transform="translate(-425.5 -234.25)"/><path d="M558.85,396.75h-35.7S515,395.66,515,407.67s2,50.25,2,50.25,1,9.83,9,9.83h30c8,0,9-9.83,9-9.83s2-38.23,2-50.25S558.85,396.75,558.85,396.75Z" transform="translate(-425.5 -234.25)"/><path d="M554.5,329.25v16.26c0,4.27-2.62,7.74-5.85,7.74h-15.3c-3.23,0-5.85-3.47-5.85-7.74V329.25Z" transform="translate(-425.5 -234.25)"/><polygon class="cls-3" points="58.38 128.5 171.59 151.49 172.62 128.55 58.38 128.5"/><path d="M651.87,513v11.46c0,5.68-3.37,10.33-7.5,10.33h-1c-4.12,0-7.5-4.65-7.5-10.33V513Z" transform="translate(-425.5 -234.25)"/><path d="M728.87,513v11.46c0,5.68-3.37,10.33-7.5,10.33h-1c-4.12,0-7.5-4.65-7.5-10.33V513Z" transform="translate(-425.5 -234.25)"/><path class="cls-4" d="M736.05,329.26H628.87a17,17,0,0,0,0,34H736.05a17,17,0,0,0,0-34Z" transform="translate(-425.5 -234.25)"/><path class="cls-4" d="M739.49,362.26H625.25l6.62,143s-1,9,7,9h87c8,0,7-9,7-9Z" transform="translate(-425.5 -234.25)"/><path d="M700.22,396.75h-35.7s-8.15-1.09-8.15,10.92,2,50.25,2,50.25,1,9.83,9,9.83h30c8,0,9-9.83,9-9.83s2-38.23,2-50.25S700.22,396.75,700.22,396.75Z" transform="translate(-425.5 -234.25)"/><path d="M695.87,329.26v16.93c0,4.45-2.62,8.06-5.85,8.06h-15.3c-3.23,0-5.85-3.61-5.85-8.06V329.26Z" transform="translate(-425.5 -234.25)"/><path d="M793.24,511.13v12.53c0,6.1-3.37,11.09-7.5,11.09h-1c-4.12,0-7.5-5-7.5-11.09V511.13Z" transform="translate(-425.5 -234.25)"/><path d="M870.24,511.13v12.53c0,6.1-3.37,11.09-7.5,11.09h-1c-4.12,0-7.5-5-7.5-11.09V511.13Z" transform="translate(-425.5 -234.25)"/><path class="cls-5" d="M877.42,329.26H770.24a17,17,0,0,0,0,34H877.42a17,17,0,0,0,0-34Z" transform="translate(-425.5 -234.25)"/><path class="cls-5" d="M880.86,362.26H766.62l6.62,143s-1,9,7,9h87c8,0,7-9,7-9Z" transform="translate(-425.5 -234.25)"/><path d="M841.59,396.75h-35.7s-8.15-1.09-8.15,10.92,2,50.25,2,50.25,1,9.83,9,9.83h30c8,0,9-9.83,9-9.83s2-38.23,2-50.25S841.59,396.75,841.59,396.75Z" transform="translate(-425.5 -234.25)"/><path d="M837.24,329.26v16.93c0,4.45-2.62,8.06-5.85,8.06h-15.3c-3.23,0-5.85-3.61-5.85-8.06V329.26Z" transform="translate(-425.5 -234.25)"/><line class="cls-6" x1="515" y1="12" y2="12"/><path class="cls-2" d="M594.29,366.29" transform="translate(-425.5 -234.25)"/><polygon class="cls-7" points="199.75 128.5 312.87 151.46 313.94 128.56 199.75 128.5"/><polygon class="cls-8" points="341.04 128.5 454.25 151.49 455.28 128.55 341.04 128.5"/><polygon class="cls-9" points="1.61 14.32 23.08 47 492.18 47 513.47 14.32 1.61 14.32"/></svg>