<svg id="Layer_1" data-name="Layer 1" xmlns="http://www.w3.org/2000/svg" viewBox="0 0 503.39 639.15"><defs><style>.cls-1{fill:#eee;stroke:#6b6b6b;stroke-miterlimit:10;stroke-width:3px;}.cls-2{fill:#20c997;}.cls-3{fill:#127062;}.cls-4{fill:#ff9c31;}</style></defs><path class="cls-1" d="M1014.27,325.88c0-138.18-112-250.2-250.2-250.2s-250.19,112-250.19,250.2A250.18,250.18,0,0,0,650.36,548.79L692,620.84l42.74,74c13.06,22.61,45.69,22.61,58.74,0l42.75-74,41.59-72.05A250.17,250.17,0,0,0,1014.27,325.88Z" transform="translate(-512.38 -74.18)"/><path d="M827.93,473.12v15.33c0,7.65-4.64,13.9-10.32,13.9h-1.37c-5.68,0-10.32-6.25-10.32-13.9V473.12Z" transform="translate(-512.38 -74.18)"/><path d="M722,472.37v15.77c0,7.81-4.65,14.21-10.32,14.21h-1.38c-5.68,0-10.32-6.4-10.32-14.21V472.37Z" transform="translate(-512.38 -74.18)"/><path class="cls-2" d="M837.81,219.62l-147.47,0a23.39,23.39,0,1,0,0,46.78l147.47,0a23.39,23.39,0,1,0,0-46.78Z" transform="translate(-512.38 -74.18)"/><path class="cls-2" d="M842.55,265H685.36l9.11,196.74s-1.38,12.38,9.63,12.38H823.8c11,0,9.64-12.38,9.64-12.38Z" transform="translate(-512.38 -74.18)"/><path d="M788.52,312.48H739.39s-11.21-1.51-11.21,15,2.75,69.13,2.75,69.13,1.38,13.52,12.38,13.52h41.28c11,0,12.38-13.52,12.38-13.52s2.76-52.6,2.76-69.13S788.52,312.48,788.52,312.48Z" transform="translate(-512.38 -74.18)"/><path d="M782.53,219.6V242c0,5.88-3.61,10.65-8.06,10.65h-21c-4.45,0-8-4.77-8-10.65V219.6Z" transform="translate(-512.38 -74.18)"/><polygon class="cls-3" points="172.97 191.51 328.74 223.14 330.17 191.58 172.97 191.51"/><path class="cls-4" d="M837.27,270.57" transform="translate(-512.38 -74.18)"/></svg>