<svg id="Layer_1" data-name="Layer 1" xmlns="http://www.w3.org/2000/svg" viewBox="0 0 457.04 580.23"><defs><style>.cls-1{fill:#878787;stroke:#6b6b6b;stroke-miterlimit:10;stroke-width:3px;}.cls-2{fill:#c9c9c9;}.cls-3{fill:#fff;}</style></defs><path class="cls-1" d="M975.27,361.62c0-125.38-101.64-227-227-227s-227,101.64-227,227A227,227,0,0,0,645.07,563.89l37.74,65.37,38.79,67.18a30.77,30.77,0,0,0,53.3,0l38.78-67.18,37.75-65.37A227,227,0,0,0,975.27,361.62Z" transform="translate(-519.73 -133.1)"/><path class="cls-2" d="M744.89,199.51,580.26,452.21a4,4,0,0,0,3.36,6.19H912.88a4,4,0,0,0,3.35-6.19L751.6,199.51A4,4,0,0,0,744.89,199.51Z" transform="translate(-519.73 -133.1)"/><path class="cls-3" d="M836.92,409.37a16.82,16.82,0,0,0-3.79-10.66l-24.91-43.14,8-4.59a5,5,0,0,0-1.19-9.1l-30.46-8.25a5,5,0,0,0-6.1,3.52l-8.09,30.51a5,5,0,0,0,7.29,5.57l8.07-4.65,18.17,31.48h-18.4a5.6,5.6,0,0,0-5.58,5.58V421a5.6,5.6,0,0,0,5.58,5.58l37.21-.24a1.21,1.21,0,0,0,.73-.34A17,17,0,0,0,836.92,409.37Z" transform="translate(-519.73 -133.1)"/><path class="cls-3" d="M738.62,269.41a16.85,16.85,0,0,0-7.31,8.63l-24.75,43.23-8-4.56a5,5,0,0,0-7.26,5.6l8.19,30.47a5,5,0,0,0,6.12,3.51l30.43-8.36a5,5,0,0,0,1.15-9.11l-8.08-4.62,18.06-31.55,9.26,15.91a5.6,5.6,0,0,0,7.64,2l13.23-7.7a5.6,5.6,0,0,0,2-7.63l-18.93-32.05a1.12,1.12,0,0,0-.66-.45A16.93,16.93,0,0,0,738.62,269.41Z" transform="translate(-519.73 -133.1)"/><path class="cls-3" d="M666.79,424.39a16.85,16.85,0,0,0,11.12,2.06l49.81,0v9.19a5,5,0,0,0,8.47,3.53L758.58,417a5,5,0,0,0,0-7.05l-22.36-22.27a5,5,0,0,0-8.48,3.52v9.31l-36.35,0,9.22-15.93a5.61,5.61,0,0,0-2-7.63l-13.26-7.67a5.58,5.58,0,0,0-7.62,2l-18.44,32.33a1.22,1.22,0,0,0-.06.8A16.94,16.94,0,0,0,666.79,424.39Z" transform="translate(-519.73 -133.1)"/></svg>