<svg id="Layer_1" data-name="Layer 1" xmlns="http://www.w3.org/2000/svg" viewBox="0 0 558.65 347.36"><defs><style>.cls-1{fill:#4040a0;}.cls-2{opacity:0.61;}.cls-3{fill:#12103d;}.cls-10,.cls-4{fill:none;}.cls-4{stroke:#1e1e1e;stroke-miterlimit:10;stroke-width:4px;}.cls-5{fill:#ededed;}.cls-6{fill:#20c997;}.cls-7{fill:#dbdbdb;}.cls-8{fill:#111;}.cls-9{fill:#fff;}.cls-11{fill:#8b8c8c;}</style></defs><path class="cls-1" d="M1206.76,277.4h-91.35v17.2a12,12,0,0,1-12,12H807.77a12,12,0,0,1-12-12V277.4h-82A32.93,32.93,0,0,0,681,310.23V551a32.93,32.93,0,0,0,32.83,32.84h493A32.94,32.94,0,0,0,1239.6,551V310.23A32.94,32.94,0,0,0,1206.76,277.4Z" transform="translate(-680.95 -236.51)"/><g class="cls-2"><path class="cls-3" d="M807.12,306.59l432.42,119.78V310.25c.27-19.87-17.29-32.87-32.06-32.83-4.76,0-92.07,0-92.07,0s0,14.46,0,17.85a12,12,0,0,1-11.7,11.38C1103.6,306.64,807.12,306.59,807.12,306.59Z" transform="translate(-680.95 -236.51)"/></g><line class="cls-4" x1="141.27" y1="70.05" x2="141.27" y2="202.55"/><line class="cls-4" x1="210.24" y1="70.05" x2="210.24" y2="347.36"/><line class="cls-4" x1="72.29" y1="40.89" x2="72.29" y2="347.36"/><line class="cls-4" x1="279.22" y1="201.22" x2="279.22" y2="347.36"/><line class="cls-4" x1="417.17" y1="70.05" x2="417.17" y2="202.55"/><line class="cls-4" x1="348.19" y1="70.05" x2="348.19" y2="347.36"/><line class="cls-4" x1="486.15" y1="40.89" x2="486.15" y2="347.36"/><line class="cls-4" x1="279.33" y1="70.05" x2="279.33" y2="88.36"/><path class="cls-5" d="M1103.44,236.51H807.77a12,12,0,0,0-12,12V294.6a12,12,0,0,0,12,12h295.67a12,12,0,0,0,12-12V248.48A12,12,0,0,0,1103.44,236.51Z" transform="translate(-680.95 -236.51)"/><path class="cls-6" d="M948.78,331l-56.69,87a13.58,13.58,0,0,0,11.38,21h113.39a13.58,13.58,0,0,0,11.38-21l-56.69-87A13.59,13.59,0,0,0,948.78,331Z" transform="translate(-680.95 -236.51)"/><path class="cls-7" d="M770.56,583.87V477.76c0-7.36,5.4-13.38,12-13.38h50.9c6.6,0,12,6,12,13.38V583.87Z" transform="translate(-680.95 -236.51)"/><rect class="cls-8" x="106.41" y="281.76" width="11.71" height="24" rx="5.85"/><path class="cls-7" d="M1060.87,583.87V477.54c0-7.37,5.4-13.41,12-13.41h50.9c6.6,0,12,6,12,13.41V583.87Z" transform="translate(-680.95 -236.51)"/><rect class="cls-8" x="396.73" y="283.5" width="11.71" height="23.36" rx="5.85"/><path class="cls-9" d="M1002.31,415.76a8,8,0,0,0-1.8-5.07l-11.84-20.5,3.78-2.19a2.36,2.36,0,0,0-.56-4.32l-14.48-3.92a2.37,2.37,0,0,0-2.9,1.67l-3.84,14.5a2.36,2.36,0,0,0,3.46,2.65l3.84-2.21,8.64,15h-8.75A2.67,2.67,0,0,0,975.2,414v7.29a2.67,2.67,0,0,0,2.66,2.65l17.69-.11a.58.58,0,0,0,.34-.17A8,8,0,0,0,1002.31,415.76Z" transform="translate(-680.95 -236.51)"/><path class="cls-9" d="M955.59,349.24a8,8,0,0,0-3.47,4.1l-11.77,20.55-3.79-2.17a2.36,2.36,0,0,0-3.45,2.66L937,388.86a2.37,2.37,0,0,0,2.91,1.67l14.46-4a2.36,2.36,0,0,0,.55-4.33l-3.84-2.2,8.59-15,4.4,7.57a2.64,2.64,0,0,0,3.62.95l6.3-3.66a2.65,2.65,0,0,0,1-3.63L966,351a.6.6,0,0,0-.32-.21A8,8,0,0,0,955.59,349.24Z" transform="translate(-680.95 -236.51)"/><path class="cls-9" d="M921.45,422.9a8,8,0,0,0,5.29,1l23.67,0v4.36a2.36,2.36,0,0,0,4,1.68l10.64-10.57a2.36,2.36,0,0,0,0-3.35l-10.63-10.59a2.36,2.36,0,0,0-4,1.68v4.42H933.14l4.38-7.57a2.67,2.67,0,0,0-1-3.63l-6.31-3.64a2.66,2.66,0,0,0-3.62,1L917.87,413a.53.53,0,0,0,0,.38A8.06,8.06,0,0,0,921.45,422.9Z" transform="translate(-680.95 -236.51)"/><rect x="81.4" y="202.28" width="91.32" height="25.46" rx="3.07"/><rect x="1052.66" y="438.8" width="91.32" height="25.34" rx="3.07" transform="translate(1515.7 666.42) rotate(-180)"/><path d="M864.14,260.34h-5.8l-1.59,7.53,4.68.73,3.32,21.8h-8l-2-13.16-2.8,13.16h-8l6.41-30.06h-5.8v-7.95h19.6Zm10.11,6.07h2.32V251.74h8.17v39.95h-8.17V274.15h-2.32v17.54h-8.17V256.21l-2.2-4.47h10.37Z" transform="translate(-680.95 -236.51)"/><path d="M925.42,258.84h4.47v7.52h-4.47v6.84H916V256.43l-1.55-3.31v5.29h-2.49a4.58,4.58,0,0,1,.49,1.07,4.79,4.79,0,0,1,.19,1.46,4.15,4.15,0,0,1-.4,1.83,4.62,4.62,0,0,1-1.14,1.46,5.43,5.43,0,0,1-1.75,1,6.29,6.29,0,0,1-2.21.37h-1.33v1.55h8.9v5.59H887.58v-5.59h8.73v-1.55H895a6.29,6.29,0,0,1-2.21-.37,5.38,5.38,0,0,1-1.74-1,4.35,4.35,0,0,1-1.14-1.46,4.16,4.16,0,0,1-.41-1.83,4.79,4.79,0,0,1,.19-1.46,4.59,4.59,0,0,1,.5-1.07h-2.5V253h8.09l-1.21-2.58h11.23V253h8.6l-.61-1.29h11.66Zm.64,27.69v5.16H895.28a2.1,2.1,0,0,1-1.6-.69l-2.4-2.54a2.23,2.23,0,0,1-.65-1.59v-6.49H916v-1.16H890.63v-5.16h34.79v11.27H900.09v1.2ZM897.3,259.31a.85.85,0,0,0,.28.65,1,1,0,0,0,.71.25h5.5a1,1,0,0,0,.71-.25.88.88,0,0,0,.28-.65.85.85,0,0,0-.28-.64,1,1,0,0,0-.71-.26h-5.5a1,1,0,0,0-.71.26A.81.81,0,0,0,897.3,259.31Z" transform="translate(-680.95 -236.51)"/><path d="M938.32,266.41a6.7,6.7,0,0,1-2.5-.82,6.6,6.6,0,0,1-1.91-1.66,7.59,7.59,0,0,1-1.23-2.28,8.45,8.45,0,0,1-.43-2.68,8.23,8.23,0,0,1,.5-2.86,7.19,7.19,0,0,1,1.42-2.39,6.78,6.78,0,0,1,2.19-1.63,6.54,6.54,0,0,1,2.82-.61h23.56a6.54,6.54,0,0,1,2.82.61,6.89,6.89,0,0,1,2.19,1.63,7.19,7.19,0,0,1,1.42,2.39,8.23,8.23,0,0,1,.5,2.86,8.45,8.45,0,0,1-.43,2.68,7.59,7.59,0,0,1-1.23,2.28,6.6,6.6,0,0,1-1.91,1.66,6.7,6.7,0,0,1-2.5.82v2.19h7.14v6.45H931.18V268.6h7.14ZM932,284.34a8.53,8.53,0,0,1,.49-2.95,6.76,6.76,0,0,1,1.4-2.32,6.61,6.61,0,0,1,2.17-1.53,6.87,6.87,0,0,1,2.78-.56H963a6.87,6.87,0,0,1,2.78.56,6.61,6.61,0,0,1,2.17,1.53,6.76,6.76,0,0,1,1.4,2.32,9.1,9.1,0,0,1,0,5.89,6.67,6.67,0,0,1-1.4,2.32,6.47,6.47,0,0,1-2.17,1.53,6.87,6.87,0,0,1-2.78.56H938.88a6.87,6.87,0,0,1-2.78-.56,6.47,6.47,0,0,1-2.17-1.53,6.67,6.67,0,0,1-1.4-2.32A8.48,8.48,0,0,1,932,284.34Zm9.46,0a1.14,1.14,0,0,0,.28.79.93.93,0,0,0,.75.32h16.86a.93.93,0,0,0,.75-.32,1.14,1.14,0,0,0,.28-.79,1.17,1.17,0,0,0-.28-.8,1,1,0,0,0-.75-.32H942.53a1,1,0,0,0-.75.32A1.17,1.17,0,0,0,941.5,284.34Zm.21-25.37a1.25,1.25,0,0,0,.33.9,1.14,1.14,0,0,0,.88.34H959a1.14,1.14,0,0,0,.88-.34,1.41,1.41,0,0,0,0-1.81,1.14,1.14,0,0,0-.88-.34H942.92a1.14,1.14,0,0,0-.88.34A1.26,1.26,0,0,0,941.71,259Zm12.86,9.63v-2.15h-7.22v2.15Z" transform="translate(-680.95 -236.51)"/><path d="M984.54,274.7l8.09-22.31h7.91l-3.18,8.77,2.88.39,4.21,13.15h-7.91l-1.94-5.89-2.14,5.89Zm40.38,9.46v7.53H992a2.1,2.1,0,0,1-1.6-.69l-2.4-2.54a2.23,2.23,0,0,1-.65-1.59V276.73H997v7.43Zm-23.65-23.6h5v-4.35l-2.19-4.47h10.36v28.6h-8.17V268.08h-2.62Zm23.22-8.82v28.6h-8.17v-28.6Z" transform="translate(-680.95 -236.51)"/><path d="M1049.13,275h-7.44l-3-3.18v10.66h15.61v8h-20.43a2.09,2.09,0,0,1-1.59-.69l-2.4-2.54a2.19,2.19,0,0,1-.65-1.59V257.07l-2.19-4.68h24.25l1.72,7.95h-14.32V267h9.12Zm8.25,0h-7l-1.33-7.95h8.29V256.43l-2.19-4.69h11.65v39.95h-9.46Z" transform="translate(-680.95 -236.51)"/><path class="cls-10" d="M713.78,583.87" transform="translate(-680.95 -236.51)"/><path class="cls-11" d="M782.53,464.38s49.33-.32,53.15.09c1.86,0,9.76,4,9.76,12.94,0,8.26,0,18.16,0,18.16Z" transform="translate(-680.95 -236.51)"/><path class="cls-11" d="M1072.92,464.11s49.33-.32,53.14.09c1.87,0,9.77,4,9.77,12.94,0,8.26-.07,18.14-.07,18.14Z" transform="translate(-680.95 -236.51)"/></svg>