<svg id="Layer_1" data-name="Layer 1" xmlns="http://www.w3.org/2000/svg" viewBox="0 0 579.45 713.29"><defs><style>.cls-1{fill:#595959;stroke:#3a3a3a;stroke-miterlimit:10;stroke-width:3px;}.cls-2{fill:#c9c9c9;}.cls-3{fill:#fff;}</style></defs><path class="cls-1" d="M971.23,308.11C971.23,148.93,842.18,19.89,683,19.89s-288.23,129-288.23,288.22C394.77,434,475.48,541,588,580.28l40.62,70.35,41.67,72.19a14.73,14.73,0,0,0,25.5,0l41.67-72.19L778,580.28C890.52,541,971.23,434,971.23,308.11Z" transform="translate(-393.27 -18.39)"/><path class="cls-2" d="M671.62,125.84,486.72,409.66a13.59,13.59,0,0,0,11.38,21H867.9a13.59,13.59,0,0,0,11.38-21L694.38,125.84A13.59,13.59,0,0,0,671.62,125.84Z" transform="translate(-393.27 -18.39)"/><path class="cls-3" d="M791.23,370.81a20.6,20.6,0,0,0-4.62-13l-30.4-52.66,9.71-5.6a6.07,6.07,0,0,0-1.45-11.11l-37.18-10.07a6.06,6.06,0,0,0-7.45,4.3L710,319.89a6.06,6.06,0,0,0,8.89,6.81l9.85-5.68,22.19,38.43H728.43a6.82,6.82,0,0,0-6.81,6.81V385a6.83,6.83,0,0,0,6.81,6.82l45.42-.29a1.45,1.45,0,0,0,.89-.42A20.69,20.69,0,0,0,791.23,370.81Z" transform="translate(-393.27 -18.39)"/><path class="cls-3" d="M671.25,200a20.54,20.54,0,0,0-8.93,10.53l-30.21,52.77-9.73-5.57a6.06,6.06,0,0,0-8.87,6.84l10,37.19A6.08,6.08,0,0,0,631,306l37.14-10.2a6.07,6.07,0,0,0,1.41-11.12l-9.87-5.65,22.05-38.5L693,260a6.84,6.84,0,0,0,9.31,2.46L718.49,253a6.83,6.83,0,0,0,2.46-9.31l-23.1-39.12A1.44,1.44,0,0,0,697,204,20.67,20.67,0,0,0,671.25,200Z" transform="translate(-393.27 -18.39)"/><path class="cls-3" d="M583.57,389.14a20.57,20.57,0,0,0,13.58,2.52l60.8,0v11.21a6.07,6.07,0,0,0,10.34,4.31l27.33-27.14a6.07,6.07,0,0,0,0-8.61L668.33,344.3A6.07,6.07,0,0,0,658,348.59V360l-44.37,0,11.25-19.45a6.82,6.82,0,0,0-2.48-9.3l-16.19-9.36a6.83,6.83,0,0,0-9.31,2.48l-22.49,39.47a1.42,1.42,0,0,0-.08,1A20.66,20.66,0,0,0,583.57,389.14Z" transform="translate(-393.27 -18.39)"/></svg>