<?xml version="1.0" standalone="no"?>
<!DOCTYPE svg PUBLIC "-//W3C//DTD SVG 20010904//EN"
 "http://www.w3.org/TR/2001/REC-SVG-20010904/DTD/svg10.dtd">
<svg version="1.0" xmlns="http://www.w3.org/2000/svg"
 width="800.000000pt" height="600.000000pt" viewBox="0 0 800.000000 600.000000"
 preserveAspectRatio="xMidYMid meet">

<g transform="translate(0.000000,600.000000) scale(0.100000,-0.100000)"
fill="#000000" stroke="none">
<path d="M2860 2840 c0 -165 4 -290 9 -290 5 0 85 34 177 75 226 100 219 101
340 -17 116 -114 139 -126 197 -99 56 25 456 273 485 300 22 20 22 24 9 44
-14 22 -20 22 -286 27 l-271 5 -22 25 c-13 14 -56 66 -96 116 -39 51 -82 94
-94 98 -13 3 -119 6 -235 6 l-213 0 0 -290z"/>
<path d="M5230 2230 c-14 -11 -30 -20 -37 -20 -6 0 -13 -4 -15 -8 -1 -5 -62
-45 -135 -90 -72 -46 -134 -90 -137 -98 -3 -9 -1 -24 4 -35 10 -18 23 -19 190
-19 98 0 189 -4 202 -9 13 -5 54 -39 92 -75 l69 -66 129 0 128 0 -1 192 c0
106 -2 195 -5 199 -2 3 -46 -16 -99 -42 -52 -27 -107 -49 -122 -49 -19 0 -46
19 -99 70 -60 59 -77 70 -105 70 -19 0 -45 -9 -59 -20z"/>
<path d="M6095 2148 c4 -13 19 -41 34 -63 25 -37 34 -42 176 -88 l150 -48 58
27 c31 15 57 31 57 35 0 7 -454 159 -473 159 -5 0 -5 -10 -2 -22z"/>
<path d="M5953 1963 c-3 -10 -12 -33 -19 -52 -21 -51 -17 -70 16 -89 16 -9 30
-20 30 -23 0 -3 -22 -18 -50 -33 -27 -15 -50 -33 -50 -41 0 -8 16 -44 35 -82
28 -54 35 -80 35 -124 l0 -57 -42 -5 c-24 -3 -69 2 -101 11 -42 11 -61 12 -69
4 -17 -17 6 -38 57 -51 37 -9 48 -18 65 -51 26 -50 26 -51 -10 -108 -21 -34
-42 -55 -71 -68 -61 -27 -67 -36 -62 -91 7 -76 43 -84 43 -9 0 40 2 43 45 64
34 17 64 22 119 22 68 0 74 -2 80 -22 10 -41 6 -72 -20 -152 l-26 -78 23 -51
c31 -65 47 -81 65 -66 11 9 9 19 -11 60 -31 59 -31 59 -1 150 18 54 32 80 54
97 l30 23 39 -24 c29 -19 48 -44 82 -111 31 -62 48 -86 62 -86 28 0 24 21 -25
117 -24 49 -47 109 -50 135 l-6 48 50 25 c57 29 73 30 128 11 34 -12 42 -13
52 -1 13 16 -16 39 -65 51 -24 6 -50 19 -93 50 -2 1 1 20 7 42 9 32 26 51 91
102 77 60 92 81 70 95 -10 6 -94 -50 -150 -100 -15 -14 -42 -24 -67 -27 -41
-3 -43 -2 -43 23 0 17 21 49 65 100 l66 74 -7 64 c-7 80 -12 93 -33 89 -13 -3
-16 -15 -13 -73 l3 -70 -61 -67 c-42 -47 -72 -70 -97 -77 -33 -9 -40 -7 -83
27 -41 32 -61 60 -108 153 -1 4 21 19 50 34 59 30 78 44 78 55 0 4 -20 20 -45
36 -25 15 -45 31 -45 35 0 3 6 24 14 45 7 22 11 45 9 52 -7 18 -33 15 -40 -5z"/>
<path d="M2811 1275 c4 -121 5 -125 32 -152 l27 -28 504 -5 504 -5 -76 -152
-76 -153 -121 0 c-119 0 -123 -1 -149 -27 -36 -35 -42 -68 -22 -110 31 -65 2
-63 856 -63 823 0 823 0 849 48 19 36 13 89 -13 119 -24 28 -26 28 -151 31
l-126 4 -74 150 c-41 82 -75 154 -75 159 0 5 165 9 409 9 l409 0 50 150 50
150 -1405 0 -1405 0 3 -125z"/>
<path d="M5446 850 c-18 -56 -18 -59 0 -89 17 -29 37 -37 359 -142 187 -61
351 -115 365 -120 79 -30 123 -10 145 65 8 27 15 51 15 52 0 1 -17 0 -37 -3
-28 -3 -84 11 -218 55 -99 33 -267 87 -373 122 -153 50 -197 68 -215 90 l-23
27 -18 -57z"/>
</g>
</svg>
